<svg xmlns="http://www.w3.org/2000/svg" xmlns:xlink="http://www.w3.org/1999/xlink" contentStyleType="text/css" height="860px" preserveAspectRatio="none" style="width:1882px;height:860px;background:#FFFFFF;" version="1.1" viewBox="0 0 1882 860" width="1882.4px" zoomAndPan="magnify"><defs/><g><!--cluster boards--><g id="cluster_boards"><path d="M6.8,386.5136 L46.0943,386.5136 A3,3 0 0 1 48.0943,388.5136 L53.6943,406.5679 L520.4,406.5679 A2,2 0 0 1 522.4,408.5679 L522.4,720.3136 A2,2 0 0 1 520.4,722.3136 L6.8,722.3136 A2,2 0 0 1 4.8,720.3136 L4.8,388.5136 A2,2 0 0 1 6.8,386.5136 " fill="none" style="stroke:#000000;stroke-width:1.2000000000000002;"/><line style="stroke:#000000;stroke-width:1.2000000000000002;" x1="4.8" x2="53.6943" y1="406.5679" y2="406.5679"/><text fill="#000000" font-family="sans-serif" font-size="11.2" font-weight="bold" lengthAdjust="spacing" textLength="38.4943" x="8" y="400.0863">boards</text></g><!--cluster data_providers--><g id="cluster_data_providers"><path d="M685.2,579.6896 L769.1821,579.6896 A3,3 0 0 1 771.1821,581.6896 L776.7821,599.7439 L1166,599.7439 A2,2 0 0 1 1168,601.7439 L1168,852.4736 A2,2 0 0 1 1166,854.4736 L685.2,854.4736 A2,2 0 0 1 683.2,852.4736 L683.2,581.6896 A2,2 0 0 1 685.2,579.6896 " fill="none" style="stroke:#000000;stroke-width:1.2000000000000002;"/><line style="stroke:#000000;stroke-width:1.2000000000000002;" x1="683.2" x2="776.7821" y1="599.7439" y2="599.7439"/><text fill="#000000" font-family="sans-serif" font-size="11.2" font-weight="bold" lengthAdjust="spacing" textLength="83.1821" x="686.4" y="593.2623">data_providers</text></g><!--cluster icons--><g id="cluster_icons"><path d="M1367.6,424.6496 L1397.4303,424.6496 A3,3 0 0 1 1399.4303,426.6496 L1405.0303,444.7039 L1762,444.7039 A2,2 0 0 1 1764,446.7039 L1764,712.6816 A2,2 0 0 1 1762,714.6816 L1367.6,714.6816 A2,2 0 0 1 1365.6,712.6816 L1365.6,426.6496 A2,2 0 0 1 1367.6,424.6496 " fill="none" style="stroke:#000000;stroke-width:1.2000000000000002;"/><line style="stroke:#000000;stroke-width:1.2000000000000002;" x1="1365.6" x2="1405.0303" y1="444.7039" y2="444.7039"/><text fill="#000000" font-family="sans-serif" font-size="11.2" font-weight="bold" lengthAdjust="spacing" textLength="29.0303" x="1368.8" y="438.2223">icons</text></g><!--cluster notifications--><g id="cluster_notifications"><path d="M543.6,5.2816 L615.1725,5.2816 A3,3 0 0 1 617.1725,7.2816 L622.7725,25.3359 L1266.8,25.3359 A2,2 0 0 1 1268.8,27.3359 L1268.8,550.0096 A2,2 0 0 1 1266.8,552.0096 L543.6,552.0096 A2,2 0 0 1 541.6,550.0096 L541.6,7.2816 A2,2 0 0 1 543.6,5.2816 " fill="none" style="stroke:#000000;stroke-width:1.2000000000000002;"/><line style="stroke:#000000;stroke-width:1.2000000000000002;" x1="541.6" x2="622.7725" y1="25.3359" y2="25.3359"/><text fill="#000000" font-family="sans-serif" font-size="11.2" font-weight="bold" lengthAdjust="spacing" textLength="70.7725" x="544.8" y="18.8543">notifications</text></g><!--cluster scheduler--><g id="cluster_scheduler"><path d="M316.4,106.9296 L371.9566,106.9296 A3,3 0 0 1 373.9566,108.9296 L379.5566,126.9839 L438.8,126.9839 A2,2 0 0 1 440.8,128.9839 L440.8,232.2976 A2,2 0 0 1 438.8,234.2976 L316.4,234.2976 A2,2 0 0 1 314.4,232.2976 L314.4,108.9296 A2,2 0 0 1 316.4,106.9296 " fill="none" style="stroke:#000000;stroke-width:1.2000000000000002;"/><line style="stroke:#000000;stroke-width:1.2000000000000002;" x1="314.4" x2="379.5566" y1="126.9839" y2="126.9839"/><text fill="#000000" font-family="sans-serif" font-size="11.2" font-weight="bold" lengthAdjust="spacing" textLength="54.7566" x="317.6" y="120.5023">scheduler</text></g><!--cluster utils--><g id="cluster_utils"><path d="M1330,254.3536 L1355.2495,254.3536 A3,3 0 0 1 1357.2495,256.3536 L1362.8495,274.4079 L1874.8,274.4079 A2,2 0 0 1 1876.8,276.4079 L1876.8,364.4576 A2,2 0 0 1 1874.8,366.4576 L1330,366.4576 A2,2 0 0 1 1328,364.4576 L1328,256.3536 A2,2 0 0 1 1330,254.3536 " fill="none" style="stroke:#000000;stroke-width:1.2000000000000002;"/><line style="stroke:#000000;stroke-width:1.2000000000000002;" x1="1328" x2="1362.8495" y1="274.4079" y2="274.4079"/><text fill="#000000" font-family="sans-serif" font-size="11.2" font-weight="bold" lengthAdjust="spacing" textLength="24.4495" x="1331.2" y="267.9263">utils</text></g><!--class Board--><g id="elem_Board"><rect codeLine="2" fill="#F1F1F1" height="145.1803" id="Board" rx="2" ry="2" style="stroke:#181818;stroke-width:0.4000000000000001;" width="231.628" x="17.784" y="416.9136"/><ellipse cx="114.2716" cy="429.7136" fill="#ADD1B2" rx="8.8" ry="8.8" style="stroke:#181818;stroke-width:0.8000000000000002;"/><path d="M113.8466,435.2511 Q112.4466,435.2511 111.5341,434.6636 Q110.6341,434.0636 110.1841,432.9886 Q109.7466,431.9011 109.7466,430.4636 Q109.7466,428.8386 110.2716,427.6761 Q110.7966,426.5136 111.8216,425.8886 Q112.8466,425.2636 114.3466,425.2636 Q115.0591,425.2636 115.5966,425.4136 Q116.1341,425.5511 116.6841,425.8261 L116.0341,427.4386 Q115.5341,427.1886 115.0966,427.0886 Q114.6716,426.9886 114.2841,426.9886 Q113.3466,426.9886 112.7841,427.4136 Q112.2216,427.8386 111.9841,428.6011 Q111.7466,429.3636 111.7466,430.3761 Q111.7466,431.9886 112.3216,432.7636 Q112.8966,433.5261 114.1716,433.5261 Q114.6466,433.5261 115.1466,433.4011 Q115.6466,433.2761 116.3091,432.9761 L116.3091,434.7511 Q115.7216,435.0011 115.0841,435.1261 Q114.4591,435.2511 113.8466,435.2511 Z " fill="#000000"/><text fill="#000000" font-family="sans-serif" font-size="11.2" lengthAdjust="spacing" textLength="31.8527" x="130.6716" y="434.0592">Board</text><line style="stroke:#181818;stroke-width:0.4000000000000001;" x1="18.584" x2="248.612" y1="442.5136" y2="442.5136"/><ellipse cx="26.584" cy="454.5408" fill="none" rx="2.4" ry="2.4" style="stroke:#038048;stroke-width:0.8000000000000002;"/><text fill="#000000" font-family="sans-serif" font-size="11.2" lengthAdjust="spacing" textLength="116.5132" x="33.784" y="457.6863">position: tuple[int, int]</text><ellipse cx="26.584" cy="469.7951" fill="none" rx="2.4" ry="2.4" style="stroke:#038048;stroke-width:0.8000000000000002;"/><text fill="#000000" font-family="sans-serif" font-size="11.2" lengthAdjust="spacing" textLength="93.7996" x="33.784" y="472.9407">size: tuple[int, int]</text><ellipse cx="26.584" cy="485.0494" fill="none" rx="2.4" ry="2.4" style="stroke:#038048;stroke-width:0.8000000000000002;"/><text fill="#000000" font-family="sans-serif" font-size="11.2" lengthAdjust="spacing" textLength="148.4555" x="33.784" y="488.195">data_provider: DataProvider</text><ellipse cx="26.584" cy="500.3038" fill="none" rx="2.4" ry="2.4" style="stroke:#038048;stroke-width:0.8000000000000002;"/><text fill="#000000" font-family="sans-serif" font-size="11.2" lengthAdjust="spacing" textLength="101.7404" x="33.784" y="503.4493">update_interval: int</text><ellipse cx="26.584" cy="515.5581" fill="none" rx="2.4" ry="2.4" style="stroke:#038048;stroke-width:0.8000000000000002;"/><text fill="#000000" font-family="sans-serif" font-size="11.2" lengthAdjust="spacing" textLength="65.1166" x="33.784" y="518.7037">duration: int</text><line style="stroke:#181818;stroke-width:0.4000000000000001;" x1="18.584" x2="248.612" y1="525.1853" y2="525.1853"/><ellipse cx="26.584" cy="537.2124" fill="#84BE84" rx="2.4" ry="2.4" style="stroke:#038048;stroke-width:0.8000000000000002;"/><text fill="#000000" font-family="sans-serif" font-size="11.2" lengthAdjust="spacing" textLength="210.4024" x="33.784" y="540.358">display(lcd: CharLCD, context: dict): bool</text><ellipse cx="26.584" cy="552.4668" fill="#84BE84" rx="2.4" ry="2.4" style="stroke:#038048;stroke-width:0.8000000000000002;"/><text fill="#000000" font-family="sans-serif" font-size="11.2" lengthAdjust="spacing" textLength="210.828" x="33.784" y="555.6123">update(lcd: CharLCD, context: dict): bool</text></g><!--class ClockBoard--><g id="elem_ClockBoard"><rect codeLine="12" fill="#F1F1F1" height="68.9087" id="ClockBoard" rx="2" ry="2" style="stroke:#181818;stroke-width:0.4000000000000001;" width="231.628" x="17.784" y="632.9776"/><ellipse cx="100.2213" cy="645.7776" fill="#ADD1B2" rx="8.8" ry="8.8" style="stroke:#181818;stroke-width:0.8000000000000002;"/><path d="M99.7963,651.3151 Q98.3963,651.3151 97.4838,650.7276 Q96.5838,650.1276 96.1338,649.0526 Q95.6963,647.9651 95.6963,646.5276 Q95.6963,644.9026 96.2213,643.7401 Q96.7463,642.5776 97.7713,641.9526 Q98.7963,641.3276 100.2963,641.3276 Q101.0088,641.3276 101.5463,641.4776 Q102.0838,641.6151 102.6338,641.8901 L101.9838,643.5026 Q101.4838,643.2526 101.0463,643.1526 Q100.6213,643.0526 100.2338,643.0526 Q99.2963,643.0526 98.7338,643.4776 Q98.1713,643.9026 97.9338,644.6651 Q97.6963,645.4276 97.6963,646.4401 Q97.6963,648.0526 98.2713,648.8276 Q98.8463,649.5901 100.1213,649.5901 Q100.5963,649.5901 101.0963,649.4651 Q101.5963,649.3401 102.2588,649.0401 L102.2588,650.8151 Q101.6713,651.0651 101.0338,651.1901 Q100.4088,651.3151 99.7963,651.3151 Z " fill="#000000"/><text fill="#000000" font-family="sans-serif" font-size="11.2" lengthAdjust="spacing" textLength="59.9534" x="116.6213" y="650.1232">ClockBoard</text><line style="stroke:#181818;stroke-width:0.4000000000000001;" x1="18.584" x2="248.612" y1="658.5776" y2="658.5776"/><line style="stroke:#181818;stroke-width:0.4000000000000001;" x1="18.584" x2="248.612" y1="664.9776" y2="664.9776"/><ellipse cx="26.584" cy="677.0048" fill="#84BE84" rx="2.4" ry="2.4" style="stroke:#038048;stroke-width:0.8000000000000002;"/><text fill="#000000" font-family="sans-serif" font-size="11.2" lengthAdjust="spacing" textLength="210.4024" x="33.784" y="680.1503">display(lcd: CharLCD, context: dict): bool</text><ellipse cx="26.584" cy="692.2591" fill="#84BE84" rx="2.4" ry="2.4" style="stroke:#038048;stroke-width:0.8000000000000002;"/><text fill="#000000" font-family="sans-serif" font-size="11.2" lengthAdjust="spacing" textLength="210.828" x="33.784" y="695.4047">update(lcd: CharLCD, context: dict): bool</text></g><!--class GreetingBoard--><g id="elem_GreetingBoard"><rect codeLine="17" fill="#F1F1F1" height="68.9087" id="GreetingBoard" rx="2" ry="2" style="stroke:#181818;stroke-width:0.4000000000000001;" width="231.628" x="277.784" y="455.0496"/><ellipse cx="351.1941" cy="467.8496" fill="#ADD1B2" rx="8.8" ry="8.8" style="stroke:#181818;stroke-width:0.8000000000000002;"/><path d="M350.7691,473.3871 Q349.3691,473.3871 348.4566,472.7996 Q347.5566,472.1996 347.1066,471.1246 Q346.6691,470.0371 346.6691,468.5996 Q346.6691,466.9746 347.1941,465.8121 Q347.7191,464.6496 348.7441,464.0246 Q349.7691,463.3996 351.2691,463.3996 Q351.9816,463.3996 352.5191,463.5496 Q353.0566,463.6871 353.6066,463.9621 L352.9566,465.5746 Q352.4566,465.3246 352.0191,465.2246 Q351.5941,465.1246 351.2066,465.1246 Q350.2691,465.1246 349.7066,465.5496 Q349.1441,465.9746 348.9066,466.7371 Q348.6691,467.4996 348.6691,468.5121 Q348.6691,470.1246 349.2441,470.8996 Q349.8191,471.6621 351.0941,471.6621 Q351.5691,471.6621 352.0691,471.5371 Q352.5691,471.4121 353.2316,471.1121 L353.2316,472.8871 Q352.6441,473.1371 352.0066,473.2621 Q351.3816,473.3871 350.7691,473.3871 Z " fill="#000000"/><text fill="#000000" font-family="sans-serif" font-size="11.2" lengthAdjust="spacing" textLength="78.0077" x="367.5941" y="472.1952">GreetingBoard</text><line style="stroke:#181818;stroke-width:0.4000000000000001;" x1="278.584" x2="508.612" y1="480.6496" y2="480.6496"/><line style="stroke:#181818;stroke-width:0.4000000000000001;" x1="278.584" x2="508.612" y1="487.0496" y2="487.0496"/><ellipse cx="286.584" cy="499.0768" fill="#84BE84" rx="2.4" ry="2.4" style="stroke:#038048;stroke-width:0.8000000000000002;"/><text fill="#000000" font-family="sans-serif" font-size="11.2" lengthAdjust="spacing" textLength="210.4024" x="293.784" y="502.2223">display(lcd: CharLCD, context: dict): bool</text><ellipse cx="286.584" cy="514.3311" fill="#84BE84" rx="2.4" ry="2.4" style="stroke:#038048;stroke-width:0.8000000000000002;"/><text fill="#000000" font-family="sans-serif" font-size="11.2" lengthAdjust="spacing" textLength="210.828" x="293.784" y="517.4767">update(lcd: CharLCD, context: dict): bool</text></g><!--class NestedBoard--><g id="elem_NestedBoard"><rect codeLine="22" fill="#F1F1F1" height="84.163" id="NestedBoard" rx="2" ry="2" style="stroke:#181818;stroke-width:0.4000000000000001;" width="231.628" x="277.784" y="625.3456"/><ellipse cx="355.5509" cy="638.1456" fill="#ADD1B2" rx="8.8" ry="8.8" style="stroke:#181818;stroke-width:0.8000000000000002;"/><path d="M355.1259,643.6831 Q353.7259,643.6831 352.8134,643.0956 Q351.9134,642.4956 351.4634,641.4206 Q351.0259,640.3331 351.0259,638.8956 Q351.0259,637.2706 351.5509,636.1081 Q352.0759,634.9456 353.1009,634.3206 Q354.1259,633.6956 355.6259,633.6956 Q356.3384,633.6956 356.8759,633.8456 Q357.4134,633.9831 357.9634,634.2581 L357.3134,635.8706 Q356.8134,635.6206 356.3759,635.5206 Q355.9509,635.4206 355.5634,635.4206 Q354.6259,635.4206 354.0634,635.8456 Q353.5009,636.2706 353.2634,637.0331 Q353.0259,637.7956 353.0259,638.8081 Q353.0259,640.4206 353.6009,641.1956 Q354.1759,641.9581 355.4509,641.9581 Q355.9259,641.9581 356.4259,641.8331 Q356.9259,641.7081 357.5884,641.4081 L357.5884,643.1831 Q357.0009,643.4331 356.3634,643.5581 Q355.7384,643.6831 355.1259,643.6831 Z " fill="#000000"/><text fill="#000000" font-family="sans-serif" font-size="11.2" lengthAdjust="spacing" textLength="69.2941" x="371.9509" y="642.4912">NestedBoard</text><line style="stroke:#181818;stroke-width:0.4000000000000001;" x1="278.584" x2="508.612" y1="650.9456" y2="650.9456"/><ellipse cx="286.584" cy="662.9728" fill="none" rx="2.4" ry="2.4" style="stroke:#038048;stroke-width:0.8000000000000002;"/><text fill="#000000" font-family="sans-serif" font-size="11.2" lengthAdjust="spacing" textLength="123.1212" x="293.784" y="666.1183">boards: Iterable[Board]</text><line style="stroke:#181818;stroke-width:0.4000000000000001;" x1="278.584" x2="508.612" y1="672.5999" y2="672.5999"/><ellipse cx="286.584" cy="684.6271" fill="#84BE84" rx="2.4" ry="2.4" style="stroke:#038048;stroke-width:0.8000000000000002;"/><text fill="#000000" font-family="sans-serif" font-size="11.2" lengthAdjust="spacing" textLength="210.4024" x="293.784" y="687.7727">display(lcd: CharLCD, context: dict): bool</text><ellipse cx="286.584" cy="699.8814" fill="#84BE84" rx="2.4" ry="2.4" style="stroke:#038048;stroke-width:0.8000000000000002;"/><text fill="#000000" font-family="sans-serif" font-size="11.2" lengthAdjust="spacing" textLength="210.828" x="293.784" y="703.027">update(lcd: CharLCD, context: dict): bool</text></g><!--class DataProvider--><g id="elem_DataProvider"><rect codeLine="40" fill="#F1F1F1" height="114.6717" id="DataProvider" rx="2" ry="2" style="stroke:#181818;stroke-width:0.4000000000000001;" width="119.0012" x="758.096" y="610.0896"/><ellipse cx="780.9089" cy="622.8896" fill="#ADD1B2" rx="8.8" ry="8.8" style="stroke:#181818;stroke-width:0.8000000000000002;"/><path d="M780.4839,628.4271 Q779.0839,628.4271 778.1714,627.8396 Q777.2714,627.2396 776.8214,626.1646 Q776.3839,625.0771 776.3839,623.6396 Q776.3839,622.0146 776.9089,620.8521 Q777.4339,619.6896 778.4589,619.0646 Q779.4839,618.4396 780.9839,618.4396 Q781.6964,618.4396 782.2339,618.5896 Q782.7714,618.7271 783.3214,619.0021 L782.6714,620.6146 Q782.1714,620.3646 781.7339,620.2646 Q781.3089,620.1646 780.9214,620.1646 Q779.9839,620.1646 779.4214,620.5896 Q778.8589,621.0146 778.6214,621.7771 Q778.3839,622.5396 778.3839,623.5521 Q778.3839,625.1646 778.9589,625.9396 Q779.5339,626.7021 780.8089,626.7021 Q781.2839,626.7021 781.7839,626.5771 Q782.2839,626.4521 782.9464,626.1521 L782.9464,627.9271 Q782.3589,628.1771 781.7214,628.3021 Q781.0964,628.4271 780.4839,628.4271 Z " fill="#000000"/><text fill="#000000" font-family="sans-serif" font-size="11.2" lengthAdjust="spacing" textLength="69.3725" x="794.5118" y="627.2352">DataProvider</text><line style="stroke:#181818;stroke-width:0.4000000000000001;" x1="758.896" x2="876.2972" y1="635.6896" y2="635.6896"/><line style="stroke:#181818;stroke-width:0.4000000000000001;" x1="758.896" x2="876.2972" y1="642.0896" y2="642.0896"/><ellipse cx="766.896" cy="654.1168" fill="#84BE84" rx="2.4" ry="2.4" style="stroke:#038048;stroke-width:0.8000000000000002;"/><text fill="#000000" font-family="sans-serif" font-size="11.2" lengthAdjust="spacing" textLength="61.7006" x="774.096" y="657.2623">fetch_data()</text><ellipse cx="766.896" cy="669.3711" fill="#84BE84" rx="2.4" ry="2.4" style="stroke:#038048;stroke-width:0.8000000000000002;"/><text fill="#000000" font-family="sans-serif" font-size="11.2" lengthAdjust="spacing" textLength="77.5485" x="774.096" y="672.5167">get_data(): dict</text><ellipse cx="766.896" cy="684.6254" fill="#84BE84" rx="2.4" ry="2.4" style="stroke:#038048;stroke-width:0.8000000000000002;"/><text fill="#000000" font-family="sans-serif" font-size="11.2" lengthAdjust="spacing" textLength="98.2012" x="774.096" y="687.771">subscribe(handler)</text><ellipse cx="766.896" cy="699.8798" fill="#84BE84" rx="2.4" ry="2.4" style="stroke:#038048;stroke-width:0.8000000000000002;"/><text fill="#000000" font-family="sans-serif" font-size="11.2" lengthAdjust="spacing" textLength="31.0799" x="774.096" y="703.0253">start()</text><ellipse cx="766.896" cy="715.1341" fill="#84BE84" rx="2.4" ry="2.4" style="stroke:#038048;stroke-width:0.8000000000000002;"/><text fill="#000000" font-family="sans-serif" font-size="11.2" lengthAdjust="spacing" textLength="29.7919" x="774.096" y="718.2797">stop()</text></g><!--class ClockProvider--><g id="elem_ClockProvider"><rect codeLine="48" fill="#F1F1F1" height="53.6543" id="ClockProvider" rx="2" ry="2" style="stroke:#181818;stroke-width:0.4000000000000001;" width="98.2877" x="695.656" y="780.3936"/><ellipse cx="707.656" cy="793.1936" fill="#ADD1B2" rx="8.8" ry="8.8" style="stroke:#181818;stroke-width:0.8000000000000002;"/><path d="M707.231,798.7311 Q705.831,798.7311 704.9185,798.1436 Q704.0185,797.5436 703.5685,796.4686 Q703.131,795.3811 703.131,793.9436 Q703.131,792.3186 703.656,791.1561 Q704.181,789.9936 705.206,789.3686 Q706.231,788.7436 707.731,788.7436 Q708.4435,788.7436 708.981,788.8936 Q709.5185,789.0311 710.0685,789.3061 L709.4185,790.9186 Q708.9185,790.6686 708.481,790.5686 Q708.056,790.4686 707.6685,790.4686 Q706.731,790.4686 706.1685,790.8936 Q705.606,791.3186 705.3685,792.0811 Q705.131,792.8436 705.131,793.8561 Q705.131,795.4686 705.706,796.2436 Q706.281,797.0061 707.556,797.0061 Q708.031,797.0061 708.531,796.8811 Q709.031,796.7561 709.6935,796.4561 L709.6935,798.2311 Q709.106,798.4811 708.4685,798.6061 Q707.8435,798.7311 707.231,798.7311 Z " fill="#000000"/><text fill="#000000" font-family="sans-serif" font-size="11.2" lengthAdjust="spacing" textLength="72.6877" x="718.856" y="797.5392">ClockProvider</text><line style="stroke:#181818;stroke-width:0.4000000000000001;" x1="696.456" x2="793.1437" y1="805.9936" y2="805.9936"/><line style="stroke:#181818;stroke-width:0.4000000000000001;" x1="696.456" x2="793.1437" y1="812.3936" y2="812.3936"/><ellipse cx="704.456" cy="824.4208" fill="#84BE84" rx="2.4" ry="2.4" style="stroke:#038048;stroke-width:0.8000000000000002;"/><text fill="#000000" font-family="sans-serif" font-size="11.2" lengthAdjust="spacing" textLength="61.7006" x="711.656" y="827.5663">fetch_data()</text></g><!--class WeatherProvider--><g id="elem_WeatherProvider"><rect codeLine="52" fill="#F1F1F1" height="53.6543" id="WeatherProvider" rx="2" ry="2" style="stroke:#181818;stroke-width:0.4000000000000001;" width="115.1101" x="821.648" y="780.3936"/><ellipse cx="833.648" cy="793.1936" fill="#ADD1B2" rx="8.8" ry="8.8" style="stroke:#181818;stroke-width:0.8000000000000002;"/><path d="M833.223,798.7311 Q831.823,798.7311 830.9105,798.1436 Q830.0105,797.5436 829.5605,796.4686 Q829.123,795.3811 829.123,793.9436 Q829.123,792.3186 829.648,791.1561 Q830.173,789.9936 831.198,789.3686 Q832.223,788.7436 833.723,788.7436 Q834.4355,788.7436 834.973,788.8936 Q835.5105,789.0311 836.0605,789.3061 L835.4105,790.9186 Q834.9105,790.6686 834.473,790.5686 Q834.048,790.4686 833.6605,790.4686 Q832.723,790.4686 832.1605,790.8936 Q831.598,791.3186 831.3605,792.0811 Q831.123,792.8436 831.123,793.8561 Q831.123,795.4686 831.698,796.2436 Q832.273,797.0061 833.548,797.0061 Q834.023,797.0061 834.523,796.8811 Q835.023,796.7561 835.6855,796.4561 L835.6855,798.2311 Q835.098,798.4811 834.4605,798.6061 Q833.8355,798.7311 833.223,798.7311 Z " fill="#000000"/><text fill="#000000" font-family="sans-serif" font-size="11.2" lengthAdjust="spacing" textLength="89.5101" x="844.848" y="797.5392">WeatherProvider</text><line style="stroke:#181818;stroke-width:0.4000000000000001;" x1="822.448" x2="935.9581" y1="805.9936" y2="805.9936"/><line style="stroke:#181818;stroke-width:0.4000000000000001;" x1="822.448" x2="935.9581" y1="812.3936" y2="812.3936"/><ellipse cx="830.448" cy="824.4208" fill="#84BE84" rx="2.4" ry="2.4" style="stroke:#038048;stroke-width:0.8000000000000002;"/><text fill="#000000" font-family="sans-serif" font-size="11.2" lengthAdjust="spacing" textLength="61.7006" x="837.648" y="827.5663">fetch_data()</text></g><!--class MotionEventsProvider--><g id="elem_MotionEventsProvider"><rect codeLine="56" fill="#F1F1F1" height="68.9087" id="MotionEventsProvider" rx="2" ry="2" style="stroke:#181818;stroke-width:0.4000000000000001;" width="189.8633" x="965.072" y="772.7616"/><ellipse cx="998.4689" cy="785.5616" fill="#ADD1B2" rx="8.8" ry="8.8" style="stroke:#181818;stroke-width:0.8000000000000002;"/><path d="M998.0439,791.0991 Q996.6439,791.0991 995.7314,790.5116 Q994.8314,789.9116 994.3814,788.8366 Q993.9439,787.7491 993.9439,786.3116 Q993.9439,784.6866 994.4689,783.5241 Q994.9939,782.3616 996.0189,781.7366 Q997.0439,781.1116 998.5439,781.1116 Q999.2564,781.1116 999.7939,781.2616 Q1000.3314,781.3991 1000.8814,781.6741 L1000.2314,783.2866 Q999.7314,783.0366 999.2939,782.9366 Q998.8689,782.8366 998.4814,782.8366 Q997.5439,782.8366 996.9814,783.2616 Q996.4189,783.6866 996.1814,784.4491 Q995.9439,785.2116 995.9439,786.2241 Q995.9439,787.8366 996.5189,788.6116 Q997.0939,789.3741 998.3689,789.3741 Q998.8439,789.3741 999.3439,789.2491 Q999.8439,789.1241 1000.5064,788.8241 L1000.5064,790.5991 Q999.9189,790.8491 999.2814,790.9741 Q998.6564,791.0991 998.0439,791.0991 Z " fill="#000000"/><text fill="#000000" font-family="sans-serif" font-size="11.2" lengthAdjust="spacing" textLength="116.7148" x="1014.4237" y="789.9072">MotionEventsProvider</text><line style="stroke:#181818;stroke-width:0.4000000000000001;" x1="965.872" x2="1154.1353" y1="798.3616" y2="798.3616"/><line style="stroke:#181818;stroke-width:0.4000000000000001;" x1="965.872" x2="1154.1353" y1="804.7616" y2="804.7616"/><ellipse cx="973.872" cy="816.7888" fill="#84BE84" rx="2.4" ry="2.4" style="stroke:#038048;stroke-width:0.8000000000000002;"/><text fill="#000000" font-family="sans-serif" font-size="11.2" lengthAdjust="spacing" textLength="61.7006" x="981.072" y="819.9343">fetch_data()</text><ellipse cx="973.872" cy="832.0431" fill="#84BE84" rx="2.4" ry="2.4" style="stroke:#038048;stroke-width:0.8000000000000002;"/><text fill="#000000" font-family="sans-serif" font-size="11.2" lengthAdjust="spacing" textLength="169.0633" x="981.072" y="835.1887">parse_event(event_xml: str): dict</text></g><!--class IconManager--><g id="elem_IconManager"><rect codeLine="67" fill="#F1F1F1" height="68.9087" id="IconManager" rx="2" ry="2" style="stroke:#181818;stroke-width:0.4000000000000001;" width="263.391" x="1433.104" y="455.0496"/><ellipse cx="1526.2261" cy="467.8496" fill="#ADD1B2" rx="8.8" ry="8.8" style="stroke:#181818;stroke-width:0.8000000000000002;"/><path d="M1525.8011,473.3871 Q1524.4011,473.3871 1523.4886,472.7996 Q1522.5886,472.1996 1522.1386,471.1246 Q1521.7011,470.0371 1521.7011,468.5996 Q1521.7011,466.9746 1522.2261,465.8121 Q1522.7511,464.6496 1523.7761,464.0246 Q1524.8011,463.3996 1526.3011,463.3996 Q1527.0136,463.3996 1527.5511,463.5496 Q1528.0886,463.6871 1528.6386,463.9621 L1527.9886,465.5746 Q1527.4886,465.3246 1527.0511,465.2246 Q1526.6261,465.1246 1526.2386,465.1246 Q1525.3011,465.1246 1524.7386,465.5496 Q1524.1761,465.9746 1523.9386,466.7371 Q1523.7011,467.4996 1523.7011,468.5121 Q1523.7011,470.1246 1524.2761,470.8996 Q1524.8511,471.6621 1526.1261,471.6621 Q1526.6011,471.6621 1527.1011,471.5371 Q1527.6011,471.4121 1528.2636,471.1121 L1528.2636,472.8871 Q1527.6761,473.1371 1527.0386,473.2621 Q1526.4136,473.3871 1525.8011,473.3871 Z " fill="#000000"/><text fill="#000000" font-family="sans-serif" font-size="11.2" lengthAdjust="spacing" textLength="70.3469" x="1542.6261" y="472.1952">IconManager</text><line style="stroke:#181818;stroke-width:0.4000000000000001;" x1="1433.904" x2="1695.695" y1="480.6496" y2="480.6496"/><line style="stroke:#181818;stroke-width:0.4000000000000001;" x1="1433.904" x2="1695.695" y1="487.0496" y2="487.0496"/><ellipse cx="1441.904" cy="499.0768" fill="#84BE84" rx="2.4" ry="2.4" style="stroke:#038048;stroke-width:0.8000000000000002;"/><text fill="#000000" font-family="sans-serif" font-size="11.2" lengthAdjust="spacing" textLength="242.591" x="1449.104" y="502.2223">use_icon(lcd: CharLCD, icon_bitmap: tuple): str</text><ellipse cx="1441.904" cy="514.3311" fill="#84BE84" rx="2.4" ry="2.4" style="stroke:#038048;stroke-width:0.8000000000000002;"/><text fill="#000000" font-family="sans-serif" font-size="11.2" lengthAdjust="spacing" textLength="185.7625" x="1449.104" y="517.4767">clear_icon(icon_bitmap: tuple): bool</text></g><!--class dynamic_icons--><g id="elem_dynamic_icons"><rect codeLine="72" fill="#F1F1F1" height="68.9087" id="dynamic_icons" rx="2" ry="2" style="stroke:#181818;stroke-width:0.4000000000000001;" width="372.0867" x="1378.76" y="632.9776"/><ellipse cx="1522.9819" cy="645.7776" fill="#ADD1B2" rx="8.8" ry="8.8" style="stroke:#181818;stroke-width:0.8000000000000002;"/><path d="M1522.5569,651.3151 Q1521.1569,651.3151 1520.2444,650.7276 Q1519.3444,650.1276 1518.8944,649.0526 Q1518.4569,647.9651 1518.4569,646.5276 Q1518.4569,644.9026 1518.9819,643.7401 Q1519.5069,642.5776 1520.5319,641.9526 Q1521.5569,641.3276 1523.0569,641.3276 Q1523.7694,641.3276 1524.3069,641.4776 Q1524.8444,641.6151 1525.3944,641.8901 L1524.7444,643.5026 Q1524.2444,643.2526 1523.8069,643.1526 Q1523.3819,643.0526 1522.9944,643.0526 Q1522.0569,643.0526 1521.4944,643.4776 Q1520.9319,643.9026 1520.6944,644.6651 Q1520.4569,645.4276 1520.4569,646.4401 Q1520.4569,648.0526 1521.0319,648.8276 Q1521.6069,649.5901 1522.8819,649.5901 Q1523.3569,649.5901 1523.8569,649.4651 Q1524.3569,649.3401 1525.0194,649.0401 L1525.0194,650.8151 Q1524.4319,651.0651 1523.7944,651.1901 Q1523.1694,651.3151 1522.5569,651.3151 Z " fill="#000000"/><text fill="#000000" font-family="sans-serif" font-size="11.2" lengthAdjust="spacing" textLength="76.8429" x="1539.3819" y="650.1232">dynamic_icons</text><line style="stroke:#181818;stroke-width:0.4000000000000001;" x1="1379.56" x2="1750.0467" y1="658.5776" y2="658.5776"/><line style="stroke:#181818;stroke-width:0.4000000000000001;" x1="1379.56" x2="1750.0467" y1="664.9776" y2="664.9776"/><ellipse cx="1387.56" cy="677.0048" fill="#84BE84" rx="2.4" ry="2.4" style="stroke:#038048;stroke-width:0.8000000000000002;"/><text fill="#000000" font-family="sans-serif" font-size="11.2" lengthAdjust="spacing" textLength="351.2867" x="1394.76" y="680.1503">rectangle_icon(height: int, width: int, h_align: str, v_align: str): tuple</text><ellipse cx="1387.56" cy="692.2591" fill="#84BE84" rx="2.4" ry="2.4" style="stroke:#038048;stroke-width:0.8000000000000002;"/><text fill="#000000" font-family="sans-serif" font-size="11.2" lengthAdjust="spacing" textLength="168.4586" x="1394.76" y="695.4047">spinner_border(steps: int): tuple</text></g><!--class NotificationManager--><g id="elem_NotificationManager"><rect codeLine="79" fill="#F1F1F1" height="99.4173" id="NotificationManager" rx="2" ry="2" style="stroke:#181818;stroke-width:0.4000000000000001;" width="441.5488" x="554.424" y="269.4976"/><ellipse cx="717.4338" cy="282.2976" fill="#ADD1B2" rx="8.8" ry="8.8" style="stroke:#181818;stroke-width:0.8000000000000002;"/><path d="M717.0088,287.8351 Q715.6088,287.8351 714.6963,287.2476 Q713.7963,286.6476 713.3463,285.5726 Q712.9088,284.4851 712.9088,283.0476 Q712.9088,281.4226 713.4338,280.2601 Q713.9588,279.0976 714.9838,278.4726 Q716.0088,277.8476 717.5088,277.8476 Q718.2213,277.8476 718.7588,277.9976 Q719.2963,278.1351 719.8463,278.4101 L719.1963,280.0226 Q718.6963,279.7726 718.2588,279.6726 Q717.8338,279.5726 717.4463,279.5726 Q716.5088,279.5726 715.9463,279.9976 Q715.3838,280.4226 715.1463,281.1851 Q714.9088,281.9476 714.9088,282.9601 Q714.9088,284.5726 715.4838,285.3476 Q716.0588,286.1101 717.3338,286.1101 Q717.8088,286.1101 718.3088,285.9851 Q718.8088,285.8601 719.4713,285.5601 L719.4713,287.3351 Q718.8838,287.5851 718.2463,287.7101 Q717.6213,287.8351 717.0088,287.8351 Z " fill="#000000"/><text fill="#000000" font-family="sans-serif" font-size="11.2" lengthAdjust="spacing" textLength="108.7292" x="733.8338" y="286.6432">NotificationManager</text><line style="stroke:#181818;stroke-width:0.4000000000000001;" x1="555.224" x2="995.1728" y1="295.0976" y2="295.0976"/><line style="stroke:#181818;stroke-width:0.4000000000000001;" x1="555.224" x2="995.1728" y1="301.4976" y2="301.4976"/><ellipse cx="563.224" cy="313.5248" fill="#84BE84" rx="2.4" ry="2.4" style="stroke:#038048;stroke-width:0.8000000000000002;"/><text fill="#000000" font-family="sans-serif" font-size="11.2" lengthAdjust="spacing" textLength="420.7488" x="570.424" y="316.6703">add_notification(notification_board: Board, event: dict, priority: int, duration: int)</text><ellipse cx="563.224" cy="328.7791" fill="#84BE84" rx="2.4" ry="2.4" style="stroke:#038048;stroke-width:0.8000000000000002;"/><text fill="#000000" font-family="sans-serif" font-size="11.2" lengthAdjust="spacing" textLength="180.3977" x="570.424" y="331.9247">get_notification(): NotificationItem</text><ellipse cx="563.224" cy="344.0334" fill="#84BE84" rx="2.4" ry="2.4" style="stroke:#038048;stroke-width:0.8000000000000002;"/><text fill="#000000" font-family="sans-serif" font-size="11.2" lengthAdjust="spacing" textLength="124.5323" x="570.424" y="347.179">has_notifications(): bool</text><ellipse cx="563.224" cy="359.2878" fill="#84BE84" rx="2.4" ry="2.4" style="stroke:#038048;stroke-width:0.8000000000000002;"/><text fill="#000000" font-family="sans-serif" font-size="11.2" lengthAdjust="spacing" textLength="273.9733" x="570.424" y="362.4333">display_next_notification(lcd: CharLCD, context: dict)</text></g><!--class NotificationItem--><g id="elem_NotificationItem"><rect codeLine="86" fill="#F1F1F1" height="99.4173" id="NotificationItem" rx="2" ry="2" style="stroke:#181818;stroke-width:0.4000000000000001;" width="154.6619" x="626.672" y="439.7936"/><ellipse cx="658.1033" cy="452.5936" fill="#ADD1B2" rx="8.8" ry="8.8" style="stroke:#181818;stroke-width:0.8000000000000002;"/><path d="M657.6783,458.1311 Q656.2783,458.1311 655.3658,457.5436 Q654.4658,456.9436 654.0158,455.8686 Q653.5783,454.7811 653.5783,453.3436 Q653.5783,451.7186 654.1033,450.5561 Q654.6283,449.3936 655.6533,448.7686 Q656.6783,448.1436 658.1783,448.1436 Q658.8908,448.1436 659.4283,448.2936 Q659.9658,448.4311 660.5158,448.7061 L659.8658,450.3186 Q659.3658,450.0686 658.9283,449.9686 Q658.5033,449.8686 658.1158,449.8686 Q657.1783,449.8686 656.6158,450.2936 Q656.0533,450.7186 655.8158,451.4811 Q655.5783,452.2436 655.5783,453.2561 Q655.5783,454.8686 656.1533,455.6436 Q656.7283,456.4061 658.0033,456.4061 Q658.4783,456.4061 658.9783,456.2811 Q659.4783,456.1561 660.1408,455.8561 L660.1408,457.6311 Q659.5533,457.8811 658.9158,458.0061 Q658.2908,458.1311 657.6783,458.1311 Z " fill="#000000"/><text fill="#000000" font-family="sans-serif" font-size="11.2" lengthAdjust="spacing" textLength="85.8813" x="673.6213" y="456.9392">NotificationItem</text><line style="stroke:#181818;stroke-width:0.4000000000000001;" x1="627.472" x2="780.5339" y1="465.3936" y2="465.3936"/><ellipse cx="635.472" cy="477.4208" fill="none" rx="2.4" ry="2.4" style="stroke:#038048;stroke-width:0.8000000000000002;"/><text fill="#000000" font-family="sans-serif" font-size="11.2" lengthAdjust="spacing" textLength="133.8619" x="642.672" y="480.5663">notification_board: Board</text><ellipse cx="635.472" cy="492.6751" fill="none" rx="2.4" ry="2.4" style="stroke:#038048;stroke-width:0.8000000000000002;"/><text fill="#000000" font-family="sans-serif" font-size="11.2" lengthAdjust="spacing" textLength="54.3982" x="642.672" y="495.8207">event: dict</text><ellipse cx="635.472" cy="507.9294" fill="none" rx="2.4" ry="2.4" style="stroke:#038048;stroke-width:0.8000000000000002;"/><text fill="#000000" font-family="sans-serif" font-size="11.2" lengthAdjust="spacing" textLength="58.2174" x="642.672" y="511.075">priority: int</text><ellipse cx="635.472" cy="523.1838" fill="none" rx="2.4" ry="2.4" style="stroke:#038048;stroke-width:0.8000000000000002;"/><text fill="#000000" font-family="sans-serif" font-size="11.2" lengthAdjust="spacing" textLength="65.1166" x="642.672" y="526.3293">duration: int</text><line style="stroke:#181818;stroke-width:0.4000000000000001;" x1="627.472" x2="780.5339" y1="532.8109" y2="532.8109"/></g><!--class Notifier--><g id="elem_Notifier"><rect codeLine="93" fill="#F1F1F1" height="53.6543" id="Notifier" rx="2" ry="2" style="stroke:#181818;stroke-width:0.4000000000000001;" width="247.2743" x="829.96" y="35.6816"/><ellipse cx="930.2444" cy="48.4816" fill="#ADD1B2" rx="8.8" ry="8.8" style="stroke:#181818;stroke-width:0.8000000000000002;"/><path d="M929.8194,54.0191 Q928.4194,54.0191 927.5069,53.4316 Q926.6069,52.8316 926.1569,51.7566 Q925.7194,50.6691 925.7194,49.2316 Q925.7194,47.6066 926.2444,46.4441 Q926.7694,45.2816 927.7944,44.6566 Q928.8194,44.0316 930.3194,44.0316 Q931.0319,44.0316 931.5694,44.1816 Q932.1069,44.3191 932.6569,44.5941 L932.0069,46.2066 Q931.5069,45.9566 931.0694,45.8566 Q930.6444,45.7566 930.2569,45.7566 Q929.3194,45.7566 928.7569,46.1816 Q928.1944,46.6066 927.9569,47.3691 Q927.7194,48.1316 927.7194,49.1441 Q927.7194,50.7566 928.2944,51.5316 Q928.8694,52.2941 930.1444,52.2941 Q930.6194,52.2941 931.1194,52.1691 Q931.6194,52.0441 932.2819,51.7441 L932.2819,53.5191 Q931.6944,53.7691 931.0569,53.8941 Q930.4319,54.0191 929.8194,54.0191 Z " fill="#000000"/><text fill="#000000" font-family="sans-serif" font-size="11.2" lengthAdjust="spacing" textLength="39.9054" x="946.6444" y="52.8272">Notifier</text><line style="stroke:#181818;stroke-width:0.4000000000000001;" x1="830.76" x2="1076.4343" y1="61.2816" y2="61.2816"/><line style="stroke:#181818;stroke-width:0.4000000000000001;" x1="830.76" x2="1076.4343" y1="67.6816" y2="67.6816"/><ellipse cx="838.76" cy="79.7088" fill="#84BE84" rx="2.4" ry="2.4" style="stroke:#038048;stroke-width:0.8000000000000002;"/><text fill="#000000" font-family="sans-serif" font-size="11.2" lengthAdjust="spacing" textLength="226.4743" x="845.96" y="82.8543">notify(event: dict, priority: int, duration: int)</text></g><!--class MotionDetectionNotification--><g id="elem_MotionDetectionNotification"><rect codeLine="97" fill="#F1F1F1" height="68.9087" id="MotionDetectionNotification" rx="2" ry="2" style="stroke:#181818;stroke-width:0.4000000000000001;" width="231.628" x="1024.184" y="284.7536"/><ellipse cx="1061.7599" cy="297.5536" fill="#ADD1B2" rx="8.8" ry="8.8" style="stroke:#181818;stroke-width:0.8000000000000002;"/><path d="M1061.3349,303.0911 Q1059.9349,303.0911 1059.0224,302.5036 Q1058.1224,301.9036 1057.6724,300.8286 Q1057.2349,299.7411 1057.2349,298.3036 Q1057.2349,296.6786 1057.7599,295.5161 Q1058.2849,294.3536 1059.3099,293.7286 Q1060.3349,293.1036 1061.8349,293.1036 Q1062.5474,293.1036 1063.0849,293.2536 Q1063.6224,293.3911 1064.1724,293.6661 L1063.5224,295.2786 Q1063.0224,295.0286 1062.5849,294.9286 Q1062.1599,294.8286 1061.7724,294.8286 Q1060.8349,294.8286 1060.2724,295.2536 Q1059.7099,295.6786 1059.4724,296.4411 Q1059.2349,297.2036 1059.2349,298.2161 Q1059.2349,299.8286 1059.8099,300.6036 Q1060.3849,301.3661 1061.6599,301.3661 Q1062.1349,301.3661 1062.6349,301.2411 Q1063.1349,301.1161 1063.7974,300.8161 L1063.7974,302.5911 Q1063.2099,302.8411 1062.5724,302.9661 Q1061.9474,303.0911 1061.3349,303.0911 Z " fill="#000000"/><text fill="#000000" font-family="sans-serif" font-size="11.2" lengthAdjust="spacing" textLength="149.6762" x="1078.1599" y="301.8992">MotionDetectionNotification</text><line style="stroke:#181818;stroke-width:0.4000000000000001;" x1="1024.984" x2="1255.012" y1="310.3536" y2="310.3536"/><line style="stroke:#181818;stroke-width:0.4000000000000001;" x1="1024.984" x2="1255.012" y1="316.7536" y2="316.7536"/><ellipse cx="1032.984" cy="328.7808" fill="#84BE84" rx="2.4" ry="2.4" style="stroke:#038048;stroke-width:0.8000000000000002;"/><text fill="#000000" font-family="sans-serif" font-size="11.2" lengthAdjust="spacing" textLength="210.4024" x="1040.184" y="331.9263">display(lcd: CharLCD, context: dict): bool</text><ellipse cx="1032.984" cy="344.0351" fill="#84BE84" rx="2.4" ry="2.4" style="stroke:#038048;stroke-width:0.8000000000000002;"/><text fill="#000000" font-family="sans-serif" font-size="11.2" lengthAdjust="spacing" textLength="210.828" x="1040.184" y="347.1807">update(lcd: CharLCD, context: dict): bool</text></g><!--class MotionDetectionNotifier--><g id="elem_MotionDetectionNotifier"><rect codeLine="102" fill="#F1F1F1" height="53.6543" id="MotionDetectionNotifier" rx="2" ry="2" style="stroke:#181818;stroke-width:0.4000000000000001;" width="153.9291" x="991.832" y="152.5856"/><ellipse cx="1003.832" cy="165.3856" fill="#ADD1B2" rx="8.8" ry="8.8" style="stroke:#181818;stroke-width:0.8000000000000002;"/><path d="M1003.407,170.9231 Q1002.007,170.9231 1001.0945,170.3356 Q1000.1945,169.7356 999.7445,168.6606 Q999.307,167.5731 999.307,166.1356 Q999.307,164.5106 999.832,163.3481 Q1000.357,162.1856 1001.382,161.5606 Q1002.407,160.9356 1003.907,160.9356 Q1004.6195,160.9356 1005.157,161.0856 Q1005.6945,161.2231 1006.2445,161.4981 L1005.5945,163.1106 Q1005.0945,162.8606 1004.657,162.7606 Q1004.232,162.6606 1003.8445,162.6606 Q1002.907,162.6606 1002.3445,163.0856 Q1001.782,163.5106 1001.5445,164.2731 Q1001.307,165.0356 1001.307,166.0481 Q1001.307,167.6606 1001.882,168.4356 Q1002.457,169.1981 1003.732,169.1981 Q1004.207,169.1981 1004.707,169.0731 Q1005.207,168.9481 1005.8695,168.6481 L1005.8695,170.4231 Q1005.282,170.6731 1004.6445,170.7981 Q1004.0195,170.9231 1003.407,170.9231 Z " fill="#000000"/><text fill="#000000" font-family="sans-serif" font-size="11.2" lengthAdjust="spacing" textLength="128.3291" x="1015.032" y="169.7312">MotionDetectionNotifier</text><line style="stroke:#181818;stroke-width:0.4000000000000001;" x1="992.632" x2="1144.9611" y1="178.1856" y2="178.1856"/><line style="stroke:#181818;stroke-width:0.4000000000000001;" x1="992.632" x2="1144.9611" y1="184.5856" y2="184.5856"/><ellipse cx="1000.632" cy="196.6128" fill="#84BE84" rx="2.4" ry="2.4" style="stroke:#038048;stroke-width:0.8000000000000002;"/><text fill="#000000" font-family="sans-serif" font-size="11.2" lengthAdjust="spacing" textLength="131.5995" x="1007.832" y="199.7583">handle_event(event: dict)</text></g><!--class Scheduler--><g id="elem_Scheduler"><rect codeLine="111" fill="#F1F1F1" height="84.163" id="Scheduler" rx="2" ry="2" style="stroke:#181818;stroke-width:0.4000000000000001;" width="101.4061" x="326.896" y="137.3296"/><ellipse cx="349.4267" cy="150.1296" fill="#ADD1B2" rx="8.8" ry="8.8" style="stroke:#181818;stroke-width:0.8000000000000002;"/><path d="M349.0017,155.6671 Q347.6017,155.6671 346.6892,155.0796 Q345.7892,154.4796 345.3392,153.4046 Q344.9017,152.3171 344.9017,150.8796 Q344.9017,149.2546 345.4267,148.0921 Q345.9517,146.9296 346.9767,146.3046 Q348.0017,145.6796 349.5017,145.6796 Q350.2142,145.6796 350.7517,145.8296 Q351.2892,145.9671 351.8392,146.2421 L351.1892,147.8546 Q350.6892,147.6046 350.2517,147.5046 Q349.8267,147.4046 349.4392,147.4046 Q348.5017,147.4046 347.9392,147.8296 Q347.3767,148.2546 347.1392,149.0171 Q346.9017,149.7796 346.9017,150.7921 Q346.9017,152.4046 347.4767,153.1796 Q348.0517,153.9421 349.3267,153.9421 Q349.8017,153.9421 350.3017,153.8171 Q350.8017,153.6921 351.4642,153.3921 L351.4642,155.1671 Q350.8767,155.4171 350.2392,155.5421 Q349.6142,155.6671 349.0017,155.6671 Z " fill="#000000"/><text fill="#000000" font-family="sans-serif" font-size="11.2" lengthAdjust="spacing" textLength="52.4046" x="362.9668" y="154.4752">Scheduler</text><line style="stroke:#181818;stroke-width:0.4000000000000001;" x1="327.696" x2="427.5021" y1="162.9296" y2="162.9296"/><line style="stroke:#181818;stroke-width:0.4000000000000001;" x1="327.696" x2="427.5021" y1="169.3296" y2="169.3296"/><ellipse cx="335.696" cy="181.3568" fill="#84BE84" rx="2.4" ry="2.4" style="stroke:#038048;stroke-width:0.8000000000000002;"/><text fill="#000000" font-family="sans-serif" font-size="11.2" lengthAdjust="spacing" textLength="31.0799" x="342.896" y="184.5023">start()</text><ellipse cx="335.696" cy="196.6111" fill="#84BE84" rx="2.4" ry="2.4" style="stroke:#038048;stroke-width:0.8000000000000002;"/><text fill="#000000" font-family="sans-serif" font-size="11.2" lengthAdjust="spacing" textLength="29.7919" x="342.896" y="199.7567">stop()</text><ellipse cx="335.696" cy="211.8654" fill="#84BE84" rx="2.4" ry="2.4" style="stroke:#038048;stroke-width:0.8000000000000002;"/><text fill="#000000" font-family="sans-serif" font-size="11.2" lengthAdjust="spacing" textLength="80.6061" x="342.896" y="215.011">rotate_boards()</text></g><!--class common_utils--><g id="elem_common_utils"><rect codeLine="119" fill="#F1F1F1" height="68.9087" id="common_utils" rx="2" ry="2" style="stroke:#181818;stroke-width:0.4000000000000001;" width="523.331" x="1340.736" y="284.7536"/><ellipse cx="1562.064" cy="297.5536" fill="#ADD1B2" rx="8.8" ry="8.8" style="stroke:#181818;stroke-width:0.8000000000000002;"/><path d="M1561.639,303.0911 Q1560.239,303.0911 1559.3265,302.5036 Q1558.4265,301.9036 1557.9765,300.8286 Q1557.539,299.7411 1557.539,298.3036 Q1557.539,296.6786 1558.064,295.5161 Q1558.589,294.3536 1559.614,293.7286 Q1560.639,293.1036 1562.139,293.1036 Q1562.8515,293.1036 1563.389,293.2536 Q1563.9265,293.3911 1564.4765,293.6661 L1563.8265,295.2786 Q1563.3265,295.0286 1562.889,294.9286 Q1562.464,294.8286 1562.0765,294.8286 Q1561.139,294.8286 1560.5765,295.2536 Q1560.014,295.6786 1559.7765,296.4411 Q1559.539,297.2036 1559.539,298.2161 Q1559.539,299.8286 1560.114,300.6036 Q1560.689,301.3661 1561.964,301.3661 Q1562.439,301.3661 1562.939,301.2411 Q1563.439,301.1161 1564.1015,300.8161 L1564.1015,302.5911 Q1563.514,302.8411 1562.8765,302.9661 Q1562.2515,303.0911 1561.639,303.0911 Z " fill="#000000"/><text fill="#000000" font-family="sans-serif" font-size="11.2" lengthAdjust="spacing" textLength="73.8749" x="1578.464" y="301.8992">common_utils</text><line style="stroke:#181818;stroke-width:0.4000000000000001;" x1="1341.536" x2="1863.267" y1="310.3536" y2="310.3536"/><line style="stroke:#181818;stroke-width:0.4000000000000001;" x1="1341.536" x2="1863.267" y1="316.7536" y2="316.7536"/><ellipse cx="1349.536" cy="328.7808" fill="#84BE84" rx="2.4" ry="2.4" style="stroke:#038048;stroke-width:0.8000000000000002;"/><text fill="#000000" font-family="sans-serif" font-size="11.2" lengthAdjust="spacing" textLength="257.8454" x="1356.736" y="331.9263">write_icon(lcd: CharLCD, icon: list, position: tuple)</text><ellipse cx="1349.536" cy="344.0351" fill="#84BE84" rx="2.4" ry="2.4" style="stroke:#038048;stroke-width:0.8000000000000002;"/><text fill="#000000" font-family="sans-serif" font-size="11.2" lengthAdjust="spacing" textLength="502.531" x="1356.736" y="347.1807">get_progress_percent(start_time: float, current_time: float, end_time: float, duration: float): float</text></g><!--reverse link Board to ClockBoard--><g id="link_Board_ClockBoard"><path codeLine="33" d="M133.6,576.6736 C133.6,601.0576 133.6,612.7456 133.6,632.7376 " fill="none" id="Board-backto-ClockBoard" style="stroke:#181818;stroke-width:0.8000000000000002;"/><polygon fill="none" points="133.6,562.2736,128.8,576.6736,138.4,576.6736,133.6,562.2736" style="stroke:#181818;stroke-width:0.8000000000000002;"/></g><!--reverse link Board to GreetingBoard--><g id="link_Board_GreetingBoard"><path codeLine="34" d="M264.032,489.5056 C273.312,489.5056 268.192,489.5056 277.472,489.5056 " fill="none" id="Board-backto-GreetingBoard" style="stroke:#181818;stroke-width:0.8000000000000002;"/><polygon fill="none" points="249.632,489.5056,264.032,494.3056,264.032,484.7056,249.632,489.5056" style="stroke:#181818;stroke-width:0.8000000000000002;"/></g><!--reverse link Board to NestedBoard--><g id="link_Board_NestedBoard"><path codeLine="35" d="M258.9069,570.3452 C264.4349,574.0172 257.888,569.6976 263.2,573.2896 C287.632,589.8416 314.192,608.6896 336.92,625.0976 " fill="none" id="Board-backto-NestedBoard" style="stroke:#181818;stroke-width:0.8000000000000002;"/><polygon fill="none" points="246.912,562.3776,256.251,574.3435,261.5627,566.3469,246.912,562.3776" style="stroke:#181818;stroke-width:0.8000000000000002;"/></g><!--reverse link DataProvider to ClockProvider--><g id="link_DataProvider_ClockProvider"><path codeLine="61" d="M781.0662,737.5748 C770.9382,756.8068 766.816,764.6336 758.56,780.3056 " fill="none" id="DataProvider-backto-ClockProvider" style="stroke:#181818;stroke-width:0.8000000000000002;"/><polygon fill="none" points="787.776,724.8336,776.8191,735.3382,785.3133,739.8114,787.776,724.8336" style="stroke:#181818;stroke-width:0.8000000000000002;"/></g><!--reverse link DataProvider to WeatherProvider--><g id="link_DataProvider_WeatherProvider"><path codeLine="62" d="M848.6966,737.9852 C857.2726,757.2172 860.576,764.6336 867.56,780.3056 " fill="none" id="DataProvider-backto-WeatherProvider" style="stroke:#181818;stroke-width:0.8000000000000002;"/><polygon fill="none" points="842.832,724.8336,844.3127,739.9401,853.0805,736.0304,842.832,724.8336" style="stroke:#181818;stroke-width:0.8000000000000002;"/></g><!--reverse link DataProvider to MotionEventsProvider--><g id="link_DataProvider_MotionEventsProvider"><path codeLine="63" d="M889.7179,709.3413 C927.2139,730.7173 962.92,751.0736 1000.416,772.4496 " fill="none" id="DataProvider-backto-MotionEventsProvider" style="stroke:#181818;stroke-width:0.8000000000000002;"/><polygon fill="none" points="877.208,702.2096,887.3407,713.5113,892.0952,705.1714,877.208,702.2096" style="stroke:#181818;stroke-width:0.8000000000000002;"/></g><!--reverse link Notifier to MotionDetectionNotifier--><g id="link_Notifier_MotionDetectionNotifier"><path codeLine="106" d="M989.9199,99.6624 C1008.7679,118.5344 1023.936,133.7056 1042.76,152.5536 " fill="none" id="Notifier-backto-MotionDetectionNotifier" style="stroke:#181818;stroke-width:0.8000000000000002;"/><polygon fill="none" points="979.744,89.4736,986.5236,103.0544,993.3161,96.2704,979.744,89.4736" style="stroke:#181818;stroke-width:0.8000000000000002;"/></g><!--reverse link Board to MotionDetectionNotification--><g id="link_Board_MotionDetectionNotification"><path codeLine="107" d="M213.9438,407.5042 C232.3198,392.6802 242.016,388.1856 264,380.1136 C302.88,365.8256 968.984,380.9856 1009.6,372.8576 C1029.84,368.8096 1050.928,361.6736 1070.096,353.9376 " fill="none" id="Board-backto-MotionDetectionNotification" style="stroke:#181818;stroke-width:0.8000000000000002;"/><polygon fill="none" points="202.736,416.5456,216.9575,411.2402,210.93,403.7683,202.736,416.5456" style="stroke:#181818;stroke-width:0.8000000000000002;"/></g><!--link Scheduler to Board--><g id="link_Scheduler_Board"><path codeLine="125" d="M344.696,221.8176 C305.216,271.7296 241.3459,352.485 193.4419,413.045 " fill="none" id="Scheduler-to-Board" style="stroke:#181818;stroke-width:0.8000000000000002;"/><polygon fill="#181818" points="190.464,416.8096,197.4405,413.1479,192.9456,413.6724,192.4211,409.1774,190.464,416.8096" style="stroke:#181818;stroke-width:0.8000000000000002;"/></g><!--link Scheduler to NotificationManager--><g id="link_Scheduler_NotificationManager"><path codeLine="126" d="M428.424,199.4336 C460.736,211.5376 503.512,227.3376 541.6,240.6976 C568.424,250.0976 592.5211,258.3394 620.2411,267.6354 " fill="none" id="Scheduler-to-NotificationManager" style="stroke:#181818;stroke-width:0.8000000000000002;"/><polygon fill="#181818" points="624.792,269.1616,618.9831,263.8384,620.9996,267.8898,616.9482,269.9063,624.792,269.1616" style="stroke:#181818;stroke-width:0.8000000000000002;"/></g><!--link Board to DataProvider--><g id="link_Board_DataProvider"><path codeLine="127" d="M249.792,557.5616 C254.528,559.2416 259.272,560.7696 264,562.0896 C319.344,577.6096 465.8,563.2976 522.4,573.2896 C606.032,588.0576 694.3944,618.4451 753.2264,640.8531 " fill="none" id="Board-to-DataProvider" style="stroke:#181818;stroke-width:0.8000000000000002;"/><polygon fill="#181818" points="757.712,642.5616,752.1225,637.0084,753.974,641.1378,749.8445,642.9893,757.712,642.5616" style="stroke:#181818;stroke-width:0.8000000000000002;"/></g><!--link NotificationManager to NotificationItem--><g id="link_NotificationManager_NotificationItem"><path codeLine="128" d="M754.416,369.2496 C745.056,391.4256 735.8981,413.1152 726.5541,435.2592 " fill="none" id="NotificationManager-to-NotificationItem" style="stroke:#181818;stroke-width:0.8000000000000002;"/><polygon fill="#181818" points="724.688,439.6816,730.4354,434.292,726.2431,435.9962,724.5389,431.8039,724.688,439.6816" style="stroke:#181818;stroke-width:0.8000000000000002;"/></g><!--link NotificationManager to Board--><g id="link_NotificationManager_Board"><path codeLine="129" d="M554.336,345.2736 C417.696,361.0256 267.56,378.5856 264,380.1136 C243.296,389.0096 227.062,399.2853 209.23,413.5333 " fill="none" id="NotificationManager-to-Board" style="stroke:#181818;stroke-width:0.8000000000000002;"/><polygon fill="#181818" points="205.48,416.5296,213.1025,414.5352,208.605,414.0327,209.1074,409.5352,205.48,416.5296" style="stroke:#181818;stroke-width:0.8000000000000002;"/></g><!--link NotificationItem to Board--><g id="link_NotificationItem_Board"><path codeLine="130" d="M645.88,439.4736 C609.2,412.3136 559.264,382.9696 508.4,376.4896 C483.008,373.2496 303.392,373.2496 278,376.4896 C271.624,377.2976 269.712,377.1696 264,380.1136 C244.952,389.9216 229.9889,399.9559 212.9409,413.5879 " fill="none" id="NotificationItem-to-Board" style="stroke:#181818;stroke-width:0.8000000000000002;"/><polygon fill="#181818" points="209.192,416.5856,216.8137,414.5883,212.316,414.0875,212.8168,409.5898,209.192,416.5856" style="stroke:#181818;stroke-width:0.8000000000000002;"/></g><!--link Notifier to NotificationManager--><g id="link_Notifier_NotificationManager"><path codeLine="131" d="M935.184,89.6416 C905.624,131.9056 849.8785,211.6118 812.4065,265.2038 " fill="none" id="Notifier-to-NotificationManager" style="stroke:#181818;stroke-width:0.8000000000000002;"/><polygon fill="#181818" points="809.656,269.1376,816.4043,265.0706,811.9481,265.8594,811.1593,261.4032,809.656,269.1376" style="stroke:#181818;stroke-width:0.8000000000000002;"/></g><!--link MotionDetectionNotifier to MotionEventsProvider--><g id="link_MotionDetectionNotifier_MotionEventsProvider"><path codeLine="133" d="M1146.072,184.9696 C1189.96,192.1136 1241.6,208.9536 1269.6,247.9536 C1301.976,293.0416 1281.992,318.7456 1269.6,372.8576 C1233.016,532.5856 1132.2236,697.8645 1085.7516,768.4485 " fill="none" id="MotionDetectionNotifier-to-MotionEventsProvider" style="stroke:#181818;stroke-width:0.8000000000000002;"/><polygon fill="#181818" points="1083.112,772.4576,1089.7441,768.2037,1085.3116,769.1167,1084.3986,764.6843,1083.112,772.4576" style="stroke:#181818;stroke-width:0.8000000000000002;"/></g><!--link MotionDetectionNotifier to NotificationManager--><g id="link_MotionDetectionNotifier_NotificationManager"><path codeLine="134" d="M1012.888,206.5296 C975.368,224.1936 929.135,245.9495 884.279,267.0615 " fill="none" id="MotionDetectionNotifier-to-NotificationManager" style="stroke:#181818;stroke-width:0.8000000000000002;"/><polygon fill="#181818" points="879.936,269.1056,887.8132,268.9348,883.5552,267.4022,885.0878,263.1441,879.936,269.1056" style="stroke:#181818;stroke-width:0.8000000000000002;"/></g><!--link MotionDetectionNotifier to MotionDetectionNotification--><g id="link_MotionDetectionNotifier_MotionDetectionNotification"><path codeLine="135" d="M1082.36,206.5296 C1093.776,228.6896 1107.9853,256.2708 1120.3773,280.3188 " fill="none" id="MotionDetectionNotifier-to-MotionDetectionNotification" style="stroke:#181818;stroke-width:0.8000000000000002;"/><polygon fill="#181818" points="1122.576,284.5856,1122.1225,276.7196,1120.7437,281.0299,1116.4334,279.6512,1122.576,284.5856" style="stroke:#181818;stroke-width:0.8000000000000002;"/></g><!--link MotionDetectionNotification to IconManager--><g id="link_MotionDetectionNotification_IconManager"><path codeLine="136" d="M1225.712,354.0416 C1299.504,383.3456 1401.003,423.6538 1474.763,452.9498 " fill="none" id="MotionDetectionNotification-to-IconManager" style="stroke:#181818;stroke-width:0.8000000000000002;"/><polygon fill="#181818" points="1479.224,454.7216,1473.7137,449.0898,1475.5065,453.2451,1471.3513,455.0379,1479.224,454.7216" style="stroke:#181818;stroke-width:0.8000000000000002;"/></g><!--link IconManager to dynamic_icons--><g id="link_IconManager_dynamic_icons"><path codeLine="137" d="M1564.8,524.2976 C1564.8,555.5216 1564.8,596.7456 1564.8,627.9376 " fill="none" id="IconManager-to-dynamic_icons" style="stroke:#181818;stroke-width:0.8000000000000002;"/><polygon fill="#181818" points="1564.8,632.7376,1568,625.5376,1564.8,628.7376,1561.6,625.5376,1564.8,632.7376" style="stroke:#181818;stroke-width:0.8000000000000002;"/></g><!--link common_utils to IconManager--><g id="link_common_utils_IconManager"><path codeLine="138" d="M1594.84,353.9376 C1588.296,383.2896 1579.9321,420.8045 1573.3961,450.1325 " fill="none" id="common_utils-to-IconManager" style="stroke:#181818;stroke-width:0.8000000000000002;"/><polygon fill="#181818" points="1572.352,454.8176,1577.0415,448.4861,1573.2221,450.9134,1570.7948,447.0939,1572.352,454.8176" style="stroke:#181818;stroke-width:0.8000000000000002;"/></g><!--SRC=[nLRDRjim3BxdAOHUuc392nZ33ck7eS1Q3DXXXw4mP5cnXSgM8CbfiwtlFlsuDIKxNjj3cqCIKQJuaI8_Ic9oYskApag1LQNFq9yLiX_2iTReivCD4lVv88LcXeakHwQNdFvYdTaY-tKpgcZscoviLzZWGYfnO1LLERgmo-_3QbJgfLMZXRMawe1vxiu0H_GA1n2nc6d9yJ7ZfChHUOFLj_EBBIB27d9lSbGnOZOvAeNWgQFdcZoiG6xEkI2tamIzCOYlYbB3klgzSLnJRMWrGH5gAaUNzXvnQGl2QzoyCSprYFCdnQQXwX7e-ZL0rgz0iWOP2yu__jtjG0t5E_6zfbOWsU5Wi0S3N5c7yh6zexvBsXms8Ro-FJMaAPnbjXcbDJM3BCG8MhylDL6if5c3kufJ1QoqmSfaaK38OJtjgsUXYSo6m5zkU2KSbtmvqCxevoT1OgLfGPrLvh-B-zRob3OAPcLm5ELtlFY8zwOwIKGdjERWHnVFR44cztrfHLUuizjHfBsDo6ad1Ur4HSbCY-N0wniVw6X8ECKgcCugptD6TUnmouYtqn27eiJWhkO3ceQokZ6UxBVeZbMc6Vut1UQixZoOBJg0rMRm3QfDigwZgYY5iWdAR0D9xO-9L1-Yp7KsjNj6_An9CdWDjcOoYQkgWDOPN1IU5VFGjLlagoVKp1P9nOHYvZX464swf0MZysqK49BbstRKRh2Ej7KsuTI1_ehECbTyyXAvpSo110HCoiaSZ2eW5w3LO4wMNW4pIE9hyGYEsGipFiCM5zJO6hL_OBplE7vdKSMn1qQ6Z3LpYK-6W5ecfwRZQ24bKJjfqj2gjrCXRgKVZsA8TcbQ18uGnhqGmmFZYTQXkzumddGj4MrhQy_lG6ztjW1EKb-EEDEkKEAdRzADThBMYcfTIAg8Ix6Fe32ijO_XFHVOda1wfToaY8IqgsB1M85Ui1b-nmZ7XErsduOEYcKpxBGA5-PseoVt796bHtWsEQKO_4_wFjrQGBQED8BHgO9s6hCJRybWpkd_7SmNz5B_ErimMbTmpBgzQE2jec9CJFy1]--></g></svg>